<svg width="317" height="53" viewBox="0 0 317 53" fill="none" xmlns="http://www.w3.org/2000/svg">
<g clip-path="url(#clip0_791_1629)">
<path d="M26.9339 38.5569L21.1149 41.6736L19.286 37.682C17.3463 40.0332 14.4645 41.7283 10.8068 41.7283C3.71311 41.6736 0 35.9323 0 26.9649C0 17.2866 4.37815 12.0374 11.3056 12.0374C14.5753 12.0374 17.1247 13.2404 18.7872 15.4822V1.21094H24.7726V34.2372L26.9339 38.5569ZM18.7872 34.6747V19.4738C17.2355 18.2162 15.2958 17.4507 13.2453 17.4507C8.81171 17.4507 6.20699 20.7861 6.20699 27.0196C6.20699 33.0343 8.64546 36.315 13.1344 36.315C15.1295 36.3697 17.1801 35.7136 18.7872 34.6747Z" fill="white"/>
<path d="M56.5282 27.5113H37.0205C37.4084 32.4872 41.3432 35.7679 47.4948 35.7679C50.6537 35.7679 54.0897 35.1118 56.3619 33.9088L54.4776 39.9782C52.538 41.0171 49.2682 41.6733 45.5551 41.6733C36.688 41.6733 30.8135 35.7132 30.8135 26.6912C30.8135 17.6144 36.4109 12.0371 45.278 12.0371C52.6488 12.0371 57.2486 16.1927 57.2486 22.8636C57.2486 24.3946 56.9715 26.199 56.5282 27.5113ZM37.353 23.4104H51.4296C51.1525 19.1454 49.1019 17.1223 45.278 17.1223C41.1215 17.177 38.2397 19.5282 37.353 23.4104Z" fill="white"/>
<path d="M71.048 40.9626L59.7979 12.748H66.3928L73.7082 32.4873L74.5395 34.9478H74.7611L75.5924 32.4873L82.9078 12.748H89.3919L78.1417 40.9626H71.048Z" fill="white"/>
<path d="M108.899 12.8028H121.812L120.981 17.3412H108.068L103.524 42.7124C102.249 49.8207 97.4274 52.4453 90.7216 52.4453C87.6181 52.4453 86.1772 52.0079 84.6255 51.6798L84.5146 47.0868C86.0664 47.3601 87.8952 47.5242 90.4445 47.5242C94.4902 47.5242 97.1503 45.9385 97.7599 42.6031L102.304 17.2865H93.3264L94.1577 12.7482H103.08L103.524 10.1236C104.798 3.17929 109.564 0.5 116.215 0.5C119.374 0.5 120.981 0.937434 122.366 1.26551L122.477 5.96793C120.925 5.58517 119.096 5.42114 116.547 5.42114C112.557 5.42114 109.897 7.00683 109.287 10.3423L108.899 12.8028Z" fill="white"/>
<path d="M148.469 27.5113H128.906C129.294 32.4872 133.228 35.7679 139.38 35.7679C142.539 35.7679 145.975 35.1118 148.247 33.9088L146.363 39.9782C144.423 41.0171 141.153 41.6733 137.44 41.6733C128.573 41.6733 122.699 35.7132 122.699 26.6912C122.699 17.6144 128.296 12.0371 137.163 12.0371C144.534 12.0371 149.134 16.1927 149.134 22.8636C149.189 24.3946 148.912 26.199 148.469 27.5113ZM129.238 23.4104H143.315C143.038 19.1454 140.987 17.1223 137.163 17.1223C133.062 17.177 130.18 19.5282 129.238 23.4104Z" fill="white"/>
<path d="M154.898 39.2674L154.51 32.9246C157.059 34.6743 161.714 36.2053 166.536 36.2053C170.249 36.2053 172.909 35.0571 172.909 32.4871C172.909 27.1286 155.119 32.1044 155.119 21.2232C155.119 16.138 158.999 11.873 168.198 11.873C173.851 11.873 178.119 13.24 178.119 16.6301C178.119 17.6691 177.675 18.5439 177.232 19.3641C174.793 18.2158 170.969 17.3957 167.81 17.3957C163.377 17.3957 161.049 19.036 161.049 20.8405C161.049 25.5975 179.061 21.4419 179.061 32.0497C179.061 38.0097 173.74 41.6733 165.871 41.6733C160.495 41.6733 156.505 39.9782 154.898 39.2674Z" fill="white"/>
<path d="M209.818 35.0028L208.599 40.5254C207.158 41.1269 204.276 41.7284 201.616 41.7284C194.467 41.7284 191.475 38.0649 191.475 32.925V17.7242H183.383V12.7484H191.475V5.03857H197.46V12.7484H208.987V17.7242H197.46V31.0659C197.46 34.7294 199.4 36.3698 202.78 36.3698C204.664 36.3698 208.211 35.9324 209.818 35.0028Z" fill="white"/>
<path d="M241.075 38.2285V40.9625H221.567V38.0644C230.213 30.9015 235.976 26.7458 235.976 21.0592C235.976 17.0129 233.206 15.1538 229.437 15.1538C226.5 15.1538 223.95 16.4115 222.62 17.4504C222.177 17.177 221.623 16.5755 221.623 15.7553C221.623 13.6228 225.336 12.0371 229.603 12.0371C235.533 12.0371 239.302 15.0991 239.302 20.7311C239.302 27.7301 233.427 32.1044 225.558 38.1738H241.075V38.2285Z" fill="#80868B"/>
<path d="M245.896 26.8005C245.896 17.1223 249.942 12.0918 256.537 12.0918C263.077 12.0918 267.178 17.1223 267.178 26.8005C267.178 36.4788 263.132 41.5093 256.592 41.5093C249.942 41.5093 245.896 36.4788 245.896 26.8005ZM263.797 26.8005C263.797 19.0361 261.248 15.2085 256.592 15.2085C251.882 15.2085 249.332 19.0907 249.332 26.8005C249.332 34.565 251.882 38.4472 256.592 38.4472C261.248 38.4472 263.797 34.565 263.797 26.8005ZM254.265 28.933V24.504H258.809V28.933H254.265Z" fill="#80868B"/>
<path d="M291.728 38.2285V40.9625H272.221V38.0644C280.866 30.9015 286.63 26.7458 286.63 21.0592C286.63 17.0129 283.859 15.1538 280.09 15.1538C277.153 15.1538 274.604 16.4115 273.274 17.4504C272.83 17.177 272.276 16.5755 272.276 15.7553C272.276 13.6228 275.989 12.0371 280.257 12.0371C286.186 12.0371 289.955 15.0991 289.955 20.7311C289.955 27.7301 284.08 32.1044 276.211 38.1738H291.728V38.2285Z" fill="#80868B"/>
<path d="M317 38.2285V40.9625H297.492V38.0644C306.138 30.9015 311.901 26.7458 311.901 21.0592C311.901 17.0129 309.13 15.1538 305.362 15.1538C302.425 15.1538 299.875 16.4115 298.545 17.4504C298.102 17.177 297.548 16.5755 297.548 15.7553C297.548 13.6228 301.261 12.0371 305.528 12.0371C311.458 12.0371 315.226 15.0991 315.226 20.7311C315.226 27.7301 309.352 32.1044 301.482 38.1738H317V38.2285Z" fill="#80868B"/>
</g>
<defs>
<clipPath id="clip0_791_1629">
<rect width="317" height="52" fill="white" transform="translate(0 0.5)"/>
</clipPath>
</defs>
</svg>
