<svg width="282" height="47" viewBox="0 0 282 47" fill="none" xmlns="http://www.w3.org/2000/svg">
<g clip-path="url(#clip0_697_452)">
<path d="M23.9601 34.3976L18.7836 37.2146L17.1566 33.6068C15.4311 35.732 12.8675 37.264 9.61364 37.264C3.30315 37.2146 0 32.0253 0 23.9202C0 15.1725 3.89475 10.4281 10.0573 10.4281C12.9661 10.4281 15.2339 11.5153 16.7129 13.5416V0.642578H22.0374V30.4933L23.9601 34.3976ZM16.7129 30.8886V17.1494C15.3325 16.0127 13.607 15.3208 11.7829 15.3208C7.83881 15.3208 5.52168 18.3355 5.52168 23.9696C5.52168 29.406 7.69091 32.3713 11.6843 32.3713C13.4591 32.4207 15.2832 31.8276 16.7129 30.8886Z" fill="white"/>
<path d="M50.2867 24.4141H32.9328C33.2779 28.9114 36.7783 31.8767 42.2506 31.8767C45.0608 31.8767 48.1174 31.2837 50.1388 30.1964L48.4625 35.6822C46.737 36.6212 43.8283 37.2143 40.5251 37.2143C32.637 37.2143 27.4111 31.8273 27.4111 23.6727C27.4111 15.4687 32.3905 10.4277 40.2786 10.4277C46.8356 10.4277 50.9276 14.1838 50.9276 20.2132C50.9276 21.597 50.6811 23.2279 50.2867 24.4141ZM33.2286 20.7074H45.751C45.5045 16.8526 43.6804 15.0239 40.2786 15.0239C36.5811 15.0734 34.0174 17.1985 33.2286 20.7074Z" fill="white"/>
<path d="M63.2034 36.5719L53.1953 11.0703H59.0621L65.5698 28.9115L66.3093 31.1355H66.5065L67.246 28.9115L73.7537 11.0703H79.5219L69.5138 36.5719H63.2034Z" fill="white"/>
<path d="M96.8759 11.1199H108.363L107.623 15.2219H96.1364L92.0937 38.1535C90.9598 44.5783 86.6707 46.9506 80.7053 46.9506C77.9444 46.9506 76.6626 46.5552 75.2822 46.2587L75.1836 42.1073C76.564 42.3544 78.1909 42.5026 80.4588 42.5026C84.0577 42.5026 86.4242 41.0694 86.9665 38.0547L91.0091 15.1725H83.0224L83.7619 11.0705H91.6993L92.0937 8.69821C93.2277 2.42166 97.4675 0 103.384 0C106.194 0 107.623 0.395373 108.856 0.691903L108.955 4.94217C107.574 4.59621 105.947 4.44795 103.679 4.44795C100.13 4.44795 97.7633 5.88118 97.221 8.8959L96.8759 11.1199Z" fill="white"/>
<path d="M132.077 24.4141H114.674C115.019 28.9114 118.519 31.8767 123.991 31.8767C126.802 31.8767 129.858 31.2837 131.879 30.1964L130.203 35.6822C128.478 36.6212 125.569 37.2143 122.266 37.2143C114.378 37.2143 109.152 31.8273 109.152 23.6727C109.152 15.4687 114.131 10.4277 122.019 10.4277C128.576 10.4277 132.668 14.1838 132.668 20.2132C132.718 21.597 132.471 23.2279 132.077 24.4141ZM114.969 20.7074H127.492C127.245 16.8526 125.421 15.0239 122.019 15.0239C118.371 15.0734 115.807 17.1985 114.969 20.7074Z" fill="white"/>
<path d="M137.795 35.0395L137.45 29.3066C139.718 30.8881 143.859 32.2719 148.148 32.2719C151.452 32.2719 153.818 31.2341 153.818 28.9113C153.818 24.0679 137.993 28.5653 137.993 18.7304C137.993 14.1342 141.444 10.2793 149.627 10.2793C154.656 10.2793 158.452 11.5148 158.452 14.579C158.452 15.518 158.058 16.3087 157.663 17.0501C155.494 16.0122 152.092 15.2709 149.282 15.2709C145.338 15.2709 143.268 16.7535 143.268 18.3844C143.268 22.6841 159.29 18.9281 159.29 28.5159C159.29 33.9029 154.558 37.2141 147.557 37.2141C142.775 37.2141 139.225 35.682 137.795 35.0395Z" fill="white"/>
<path d="M186.653 31.1846L185.568 36.1762C184.286 36.7199 181.723 37.2635 179.356 37.2635C172.996 37.2635 170.334 33.9522 170.334 29.3066V15.5674H163.136V11.07H170.334V4.10156H175.659V11.07H185.913V15.5674H175.659V27.6263C175.659 30.9375 177.384 32.4202 180.391 32.4202C182.068 32.4202 185.223 32.0248 186.653 31.1846Z" fill="white"/>
<path d="M214.458 34.1007V36.5718H197.104V33.9524C204.795 27.4782 209.922 23.7222 209.922 18.5823C209.922 14.9251 207.457 13.2448 204.105 13.2448C201.492 13.2448 199.224 14.3815 198.041 15.3205C197.646 15.0734 197.153 14.5297 197.153 13.7884C197.153 11.861 200.456 10.4277 204.253 10.4277C209.528 10.4277 212.88 13.1953 212.88 18.2858C212.88 24.6118 207.654 28.5655 200.654 34.0513H214.458V34.1007Z" fill="#A1CBFB"/>
<path d="M218.747 23.772C218.747 15.0243 222.346 10.4775 228.213 10.4775C234.03 10.4775 237.679 15.0243 237.679 23.772C237.679 32.5196 234.08 37.0664 228.262 37.0664C222.346 37.0664 218.747 32.5196 218.747 23.772ZM234.671 23.772C234.671 16.7541 232.403 13.2946 228.262 13.2946C224.072 13.2946 221.804 16.8035 221.804 23.772C221.804 30.7898 224.072 34.2988 228.262 34.2988C232.403 34.2988 234.671 30.7898 234.671 23.772ZM226.191 25.6994V21.6963H230.234V25.6994H226.191Z" fill="#A1CBFB"/>
<path d="M259.519 34.1007V36.5718H242.165V33.9524C249.856 27.4782 254.983 23.7222 254.983 18.5823C254.983 14.9251 252.518 13.2448 249.166 13.2448C246.553 13.2448 244.285 14.3815 243.102 15.3205C242.707 15.0734 242.214 14.5297 242.214 13.7884C242.214 11.861 245.517 10.4277 249.314 10.4277C254.589 10.4277 257.941 13.1953 257.941 18.2858C257.941 24.6118 252.715 28.5655 245.715 34.0513H259.519V34.1007Z" fill="#A1CBFB"/>
<path d="M282 34.1007V36.5718H264.646V33.9524C272.337 27.4782 277.464 23.7222 277.464 18.5823C277.464 14.9251 274.999 13.2448 271.647 13.2448C269.034 13.2448 266.766 14.3815 265.583 15.3205C265.188 15.0734 264.695 14.5297 264.695 13.7884C264.695 11.861 267.998 10.4277 271.795 10.4277C277.07 10.4277 280.422 13.1953 280.422 18.2858C280.422 24.6118 275.196 28.5655 268.196 34.0513H282V34.1007Z" fill="#A1CBFB"/>
</g>
<defs>
<clipPath id="clip0_697_452">
<rect width="282" height="47" fill="white"/>
</clipPath>
</defs>
</svg>
