<svg width="32" height="32" viewBox="0 0 32 32" fill="none" xmlns="http://www.w3.org/2000/svg">
<path fill-rule="evenodd" clip-rule="evenodd" d="M12.0589 23.9996H9V13.7139H12.0589V23.9996Z" fill="white"/>
<path fill-rule="evenodd" clip-rule="evenodd" d="M10.5203 11.4286H10.503C9.59013 11.4286 9 10.6663 9 9.71369C9 8.74092 9.60811 8 10.5383 8C11.4684 8 12.0412 8.74092 12.0589 9.71369C12.0589 10.6663 11.4684 11.4286 10.5203 11.4286Z" fill="white"/>
<path fill-rule="evenodd" clip-rule="evenodd" d="M23.2747 23.9993H20.2689V18.6228C20.2689 17.2724 19.8339 16.3509 18.7458 16.3509C17.9153 16.3509 17.4207 16.9721 17.2034 17.5721C17.1239 17.7872 17.1044 18.0868 17.1044 18.3871V23.9996H14.0981C14.0981 23.9996 14.1378 14.8931 14.0981 13.9501H17.1044V15.3735C17.5034 14.6893 18.2179 13.7139 19.8139 13.7139C21.7919 13.7139 23.2748 15.1505 23.2748 18.2373L23.2747 23.9993Z" fill="white"/>
<circle cx="16" cy="16" r="15.75" stroke="white" stroke-width="0.5"/>
</svg>
