<svg width="25" height="24" viewBox="0 0 25 24" fill="none" xmlns="http://www.w3.org/2000/svg">
<path d="M12.5005 0.47998C6.13807 0.47998 0.980469 5.63758 0.980469 12C0.980469 18.3624 6.13807 23.52 12.5005 23.52C18.8629 23.52 24.0205 18.3624 24.0205 12C24.0205 5.63758 18.8629 0.47998 12.5005 0.47998ZM17.1865 9.91678C17.1913 10.0152 17.1925 10.1136 17.1925 10.2096C17.1925 13.2096 14.9113 16.6668 10.7377 16.6668C9.50442 16.6688 8.29683 16.3146 7.26007 15.6468C7.43647 15.6684 7.61767 15.6768 7.80127 15.6768C8.86447 15.6768 9.84247 15.3156 10.6189 14.706C10.1457 14.6967 9.68727 14.54 9.3074 14.2578C8.92753 13.9756 8.64517 13.5819 8.49967 13.1316C8.83946 13.1962 9.18949 13.1827 9.52327 13.092C9.00973 12.9881 8.54791 12.7099 8.21612 12.3044C7.88433 11.8989 7.703 11.3911 7.70287 10.8672V10.8396C8.00887 11.0088 8.35927 11.112 8.73127 11.124C8.24983 10.8035 7.90901 10.3112 7.77852 9.74774C7.64803 9.18429 7.73773 8.59228 8.02927 8.09278C8.59922 8.79358 9.30998 9.36688 10.1156 9.77555C10.9211 10.1842 11.8035 10.4192 12.7057 10.4652C12.591 9.97835 12.6403 9.46727 12.8461 9.01139C13.0518 8.5555 13.4024 8.18037 13.8434 7.9443C14.2843 7.70823 14.7909 7.62445 15.2843 7.70599C15.7778 7.78753 16.2305 8.02981 16.5721 8.39518C17.0799 8.29471 17.5668 8.10845 18.0121 7.84438C17.8428 8.37014 17.4885 8.81659 17.0149 9.10078C17.4647 9.0466 17.9039 8.92567 18.3181 8.74198C18.0139 9.19785 17.6306 9.59571 17.1865 9.91678Z" fill="#202124"/>
</svg>
