<svg width="32" height="32" viewBox="0 0 32 32" fill="none" xmlns="http://www.w3.org/2000/svg">
<path fill-rule="evenodd" clip-rule="evenodd" d="M16.1915 12.2563L16.228 12.9483L15.6185 12.8636C13.4 12.5387 11.4619 11.4371 9.81626 9.58693L9.01174 8.66891L8.80452 9.34684C8.36569 10.858 8.64605 12.454 9.56028 13.5274C10.0479 14.1205 9.93816 14.2053 9.09707 13.8522C8.80452 13.7392 8.54854 13.6545 8.52416 13.6968C8.43883 13.7957 8.73138 15.0809 8.96298 15.5894C9.27992 16.2955 9.92597 16.9876 10.633 17.3972L11.2303 17.722L10.5233 17.7361C9.84064 17.7361 9.81626 17.7502 9.8894 18.0468C10.1332 18.9649 11.0962 19.9394 12.1689 20.3631L12.9246 20.6597L12.2664 21.1116C11.2912 21.7613 10.1454 22.1285 8.99955 22.1567C8.45102 22.1709 8 22.2273 8 22.2697C8 22.411 9.48714 23.2019 10.3526 23.5126C12.949 24.4306 16.033 24.0351 18.349 22.4674C19.9946 21.3517 21.6402 19.1343 22.4082 16.9876C22.8226 15.8436 23.2371 13.7533 23.2371 12.7506C23.2371 12.1009 23.2737 12.0162 23.9563 11.2394C24.3585 10.7874 24.7364 10.2931 24.8096 10.1519C24.9315 9.88352 24.9193 9.88352 24.2976 10.1236C23.2615 10.5473 23.1152 10.4908 23.6272 9.85528C24.005 9.40333 24.4561 8.58417 24.4561 8.34408C24.4561 8.30171 24.2732 8.37232 24.066 8.49943C23.8466 8.64067 23.359 8.85252 22.9933 8.97963L22.3351 9.21973L21.7378 8.75365C21.4086 8.49943 20.9454 8.21697 20.7016 8.13223C20.08 7.9345 19.1292 7.96275 18.5684 8.18872C17.0447 8.82427 16.0818 10.4626 16.1915 12.2563Z" fill="white"/>
<circle cx="16" cy="16" r="15.75" stroke="white" stroke-width="0.5"/>
</svg>
