<?xml version="1.0" standalone="no"?>
<!DOCTYPE svg PUBLIC "-//W3C//DTD SVG 20010904//EN"
 "http://www.w3.org/TR/2001/REC-SVG-20010904/DTD/svg10.dtd">
<svg version="1.0" xmlns="http://www.w3.org/2000/svg"
 width="700.000000pt" height="700.000000pt" viewBox="0 0 700.000000 700.000000"
 preserveAspectRatio="xMidYMid meet">
<metadata>
Created by potrace 1.14, written by Peter Selinger 2001-2017
</metadata>
<g transform="translate(0.000000,700.000000) scale(0.100000,-0.100000)"
fill="#000000" stroke="none">
<path d="M2415 5196 c-72 -19 -113 -38 -249 -115 -67 -38 -136 -77 -153 -88
-121 -68 -546 -313 -738 -424 -126 -73 -254 -147 -283 -163 -30 -17 -61 -35
-70 -41 -57 -34 -233 -136 -264 -154 -88 -49 -109 -61 -173 -100 -37 -23 -68
-41 -70 -41 -2 0 -48 -25 -102 -55 -119 -67 -208 -155 -252 -249 -103 -214
-72 -466 76 -628 35 -37 135 -118 147 -118 6 0 299 -167 421 -240 82 -50 475
-277 555 -322 25 -14 115 -66 200 -115 85 -49 175 -101 200 -115 25 -14 131
-74 235 -135 439 -254 481 -273 625 -275 302 -5 551 233 564 539 7 153 -52
301 -163 411 -55 54 -112 92 -292 197 -123 72 -233 135 -244 141 -53 29 -662
388 -673 396 -12 10 10 25 198 130 289 163 849 498 915 548 171 129 253 264
259 428 8 217 -84 394 -263 509 -123 79 -287 111 -406 79z"/>
<path d="M4405 5203 c-345 -62 -555 -372 -471 -696 44 -169 138 -278 339 -393
38 -21 76 -43 85 -49 38 -23 259 -151 284 -165 181 -102 658 -384 658 -389 0
-3 -44 -31 -98 -61 -83 -47 -594 -343 -932 -540 -238 -138 -347 -292 -354
-502 -7 -194 61 -345 207 -461 136 -108 284 -149 447 -123 72 11 169 59 440
218 19 11 98 56 175 100 77 45 155 89 173 99 17 11 48 28 67 39 19 11 164 94
322 186 159 92 302 174 318 184 17 9 113 65 215 125 102 59 205 119 230 133
25 13 50 28 55 32 6 4 46 27 90 51 113 60 156 91 209 150 138 153 176 412 89
609 -50 113 -141 200 -293 282 -36 19 -157 89 -270 155 -113 66 -322 188 -465
270 -395 228 -737 425 -765 440 -14 8 -41 23 -60 34 -286 167 -411 235 -463
251 -57 18 -185 29 -232 21z"/>
</g>
</svg>
