<svg width="95" height="32" viewBox="0 0 95 32" fill="none" xmlns="http://www.w3.org/2000/svg">
<g clip-path="url(#clip0_508_7509)">
<path d="M40.4275 16.4106C40.4275 20.8523 36.9384 24.1254 32.6564 24.1254C28.3744 24.1254 24.8853 20.8523 24.8853 16.4106C24.8853 11.9375 28.3744 8.6958 32.6564 8.6958C36.9384 8.6958 40.4275 11.9375 40.4275 16.4106ZM37.0257 16.4106C37.0257 13.6349 35.0035 11.7358 32.6564 11.7358C30.3093 11.7358 28.2871 13.6349 28.2871 16.4106C28.2871 19.1584 30.3093 21.0854 32.6564 21.0854C35.0035 21.0854 37.0257 19.1549 37.0257 16.4106Z" fill="#EA4335"/>
<path d="M57.1922 16.4106C57.1922 20.8523 53.703 24.1254 49.421 24.1254C45.1391 24.1254 41.6499 20.8523 41.6499 16.4106C41.6499 11.941 45.1391 8.6958 49.421 8.6958C53.703 8.6958 57.1922 11.9375 57.1922 16.4106ZM53.7903 16.4106C53.7903 13.6349 51.7681 11.7358 49.421 11.7358C47.074 11.7358 45.0517 13.6349 45.0517 16.4106C45.0517 19.1584 47.074 21.0854 49.421 21.0854C51.7681 21.0854 53.7903 19.1549 53.7903 16.4106Z" fill="#FBBC05"/>
<path d="M73.258 9.16189V23.0123C73.258 28.7097 69.8841 31.0367 65.8955 31.0367C62.1409 31.0367 59.8811 28.5358 59.0289 26.4906L61.9907 25.2628C62.5181 26.5184 63.8104 28.0001 65.892 28.0001C68.4451 28.0001 70.0273 26.4315 70.0273 23.4784V22.3688H69.9085C69.1471 23.3045 67.6802 24.1219 65.8291 24.1219C61.9558 24.1219 58.4072 20.7619 58.4072 16.4384C58.4072 12.0836 61.9558 8.6958 65.8291 8.6958C67.6767 8.6958 69.1436 9.51319 69.9085 10.421H70.0273V9.16537H73.258V9.16189ZM70.2683 16.4384C70.2683 13.7219 68.4486 11.7358 66.133 11.7358C63.7859 11.7358 61.8195 13.7219 61.8195 16.4384C61.8195 19.1271 63.7859 21.0854 66.133 21.0854C68.4486 21.0854 70.2683 19.1271 70.2683 16.4384Z" fill="#4285F4"/>
<path d="M78.5846 1.04346V23.6522H75.2666V1.04346H78.5846Z" fill="#34A853"/>
<path d="M91.5145 18.9498L94.1549 20.7028C93.3027 21.9585 91.249 24.1219 87.7005 24.1219C83.2998 24.1219 80.0132 20.7341 80.0132 16.4072C80.0132 11.8193 83.3277 8.69238 87.3198 8.69238C91.3398 8.69238 93.3062 11.8785 93.9488 13.6002L94.3016 14.4767L83.9459 18.748C84.7387 20.2959 85.9716 21.0854 87.7005 21.0854C89.4329 21.0854 90.6343 20.2367 91.5145 18.9498ZM83.3871 16.1741L90.3095 13.3115C89.9288 12.348 88.7832 11.6767 87.4351 11.6767C85.7062 11.6767 83.2998 13.1967 83.3871 16.1741Z" fill="#EA4335"/>
<path d="M12.3258 14.4036V11.1305H23.401C23.5092 11.701 23.5651 12.3757 23.5651 13.1062C23.5651 15.5618 22.8911 18.5984 20.7186 20.7618C18.6056 22.9531 15.9058 24.1218 12.3293 24.1218C5.70024 24.1218 0.125977 18.7444 0.125977 12.1427C0.125977 5.54097 5.70024 0.163574 12.3293 0.163574C15.9966 0.163574 18.6091 1.59662 20.5719 3.46444L18.2528 5.77401C16.8453 4.45923 14.9383 3.43662 12.3258 3.43662C7.48498 3.43662 3.69895 7.32184 3.69895 12.1427C3.69895 16.9636 7.48498 20.8488 12.3258 20.8488C15.4657 20.8488 17.2539 19.5931 18.3995 18.4523C19.3286 17.5271 19.9398 16.2053 20.1808 14.4001L12.3258 14.4036Z" fill="#4285F4"/>
</g>
<defs>
<clipPath id="clip0_508_7509">
<rect width="95" height="32" fill="white"/>
</clipPath>
</defs>
</svg>
