<svg width="98" height="34" viewBox="0 0 98 34" fill="none" xmlns="http://www.w3.org/2000/svg">
<g clip-path="url(#clip0_508_7554)">
<path fill-rule="evenodd" clip-rule="evenodd" d="M86.3759 15.8408L80.1387 26.6751L74.8172 26.6963L86.3759 6.30378L97.8914 26.6963H92.4856L86.3759 15.8397V15.8408ZM69.581 21.9799H75.5411L72.7739 26.6963H65.0056L65.0266 20.9535V6.42916H69.6031L69.5821 21.9799H69.581ZM53.235 6.43022C58.918 6.45147 63.5156 10.9777 63.4945 16.5728C63.4734 22.1478 58.8758 26.6751 53.1918 26.6751C47.53 26.6538 42.9324 22.1276 42.9324 16.5314C42.9535 10.9565 47.551 6.43022 53.235 6.43022ZM53.214 21.9597C56.2572 21.9597 58.7041 19.5489 58.7041 16.5728C58.7262 13.5978 56.2572 11.1658 53.235 11.1658C50.2118 11.1445 47.7428 13.5766 47.7428 16.5527C47.7217 19.5277 50.1907 21.9597 53.2129 21.9597H53.214ZM34.4612 14.9632C34.398 14.1238 34.184 13.0135 33.8648 11.9457C33.2078 9.74004 32.0656 7.71235 30.5233 6.01372C29.714 5.13397 28.7993 4.31585 27.4357 3.35216C26.3963 2.83493 25.3743 2.28283 24.3714 1.69678C23.7117 1.3196 22.9235 0.857409 21.8814 0.522722C20.6456 0.228624 19.3825 0.0672867 18.1131 0.0414094C16.8802 -0.00109055 15.6441 0.105159 14.4523 0.334659C13.1962 0.543972 12.153 0.878659 10.7694 1.21441C7.63975 2.57653 5.21399 4.63035 3.12753 7.35566C-4.15186 17.6035 2.42573 31.96 14.5798 33.6568C16.5809 33.9298 18.582 33.8247 20.4756 33.3848L21.8171 33.0288C21.8592 33.0076 21.9235 32.9863 21.9657 32.9863L23.4989 32.3998C23.5832 32.3573 23.6475 32.3361 23.7328 32.2947L24.3714 32.0014C25.5966 31.3917 26.7468 30.6393 27.7982 29.7595C26.8411 30.6364 25.8002 31.4155 24.6907 32.0853L24.7539 32.1278C24.9678 32.0641 25.1586 32.0014 25.3714 31.96C25.3714 31.96 25.3714 32.2947 25.3293 32.232C24.9889 32.4838 25.5211 32.2532 26.2018 31.8962C26.8836 31.5403 27.5432 31.0993 28.1386 30.5968C29.0122 29.8637 29.7783 29.0668 30.8636 27.7684C31.9701 25.8187 33.3547 24.1208 33.9933 21.8365C34.2062 21.2287 34.3969 20.5168 34.5255 19.7827C34.6519 19.0495 34.7383 18.2952 34.7383 17.5195C34.7173 16.7439 34.6319 15.947 34.4612 14.9632ZM18.7095 32.1905C22.4346 31.603 25.5632 29.529 28.1175 26.6995C28.8204 25.6721 29.3736 24.7286 30.0543 23.7022C30.9058 21.6059 30.8426 19.7412 31.1187 18.4216C31.4601 16.031 30.6508 14.1036 29.97 12.0498C28.9268 9.66022 27.5432 7.87947 25.1164 6.4961C18.9856 2.68172 10.6419 3.74953 6.66186 9.45091C6.64078 9.45091 6.5333 9.59754 6.32044 9.89079C6.59758 8.71779 7.30044 8.0261 8.00224 7.3546C10.0887 5.63653 12.5155 4.27335 15.2827 3.60397C18.4124 3.26822 21.5189 3.60397 24.3071 4.9661C28.48 7.3546 31.2472 11.1073 31.949 15.5486V19.6573C31.0765 26.385 25.3293 31.4988 18.7095 32.1905ZM34.0144 16.8905C33.8648 7.04116 24.1375 0.397347 14.6652 1.73928C11.898 2.42991 8.87476 3.81328 6.72508 5.74172C5.68186 6.43235 5.19291 7.7116 4.14968 8.73797C-0.0232182 14.8792 0.701771 22.7385 5.89472 27.5177C6.56083 28.1817 7.2721 28.798 8.02332 29.3622C3.68181 26.741 1.72287 22.7789 1.04214 17.9605C1.04214 16.2413 1.3825 14.5435 1.74394 12.8254C4.17181 5.30078 11.8127 -0.168966 20.1363 1.21441C21.5199 1.55016 22.9035 1.9061 24.3092 2.24185C26.0543 2.93247 27.7782 3.95991 29.1618 5.3231C30.5454 6.68416 31.5886 8.40329 32.6319 10.1001C33.3337 11.4633 33.6751 13.1813 34.0154 14.5435C34.0787 15.3191 34.0787 16.116 34.0154 16.8916L34.0144 16.8905Z" fill="black"/>
<path fill-rule="evenodd" clip-rule="evenodd" d="M25.3724 17.0384C25.3724 21.2724 21.8392 24.7096 17.4755 24.7096C13.1129 24.7096 9.57861 21.2724 9.57861 17.0384C9.57861 12.8054 13.1119 9.36816 17.4755 9.36816C21.8392 9.36816 25.3724 12.8054 25.3724 17.0394V17.0384Z" fill="white"/>
<path fill-rule="evenodd" clip-rule="evenodd" d="M25.4155 15.7386C25.309 15.1521 25.1383 14.691 24.9687 14.0418C24.2869 12.6159 23.2869 11.5056 21.9665 10.5621C17.0286 7.27262 10.2381 10.4367 9.51523 16.0542C9.23915 18.2759 10.0263 20.4136 11.431 22.0488C11.0053 21.6079 10.5374 21.1478 10.2181 20.6229L10.1759 20.6654C10.2181 20.7908 10.3888 20.8747 10.431 21.0001C10.431 21.0001 10.2602 21.0001 10.3034 20.9789C10.1759 20.8333 10.2824 21.0639 10.4731 21.3773C10.6438 21.6918 10.8567 21.9861 11.1117 22.2581C11.4742 22.6566 11.8567 23.0125 12.4953 23.4949C13.4331 23.9762 14.2624 24.6052 15.3478 24.8984C15.646 24.9834 15.9864 25.0663 16.3278 25.129C16.6893 25.1927 17.0296 25.214 17.4132 25.214C17.7746 25.214 18.1582 25.1715 18.6261 25.0865C19.1085 25.0292 19.5854 24.9315 20.0518 24.7943C21.0935 24.4781 22.0532 23.9339 22.8622 23.2006C23.2668 22.8244 23.8422 22.3421 24.2879 21.7131C24.6504 21.0012 24.6926 20.6442 24.8633 20.3297C25.033 20.0152 25.2458 19.6592 25.3955 19.1769C25.5174 18.6046 25.5886 18.0225 25.6083 17.4376C25.5872 16.8511 25.5451 16.2847 25.4165 15.7397L25.4155 15.7386ZM20.349 11.8414C21.0729 12.26 21.1793 12.3227 20.7958 12.0507C21.3501 12.1761 21.6904 12.4906 22.0308 12.8051C22.8611 13.7486 23.5419 14.8589 23.8822 16.1371C24.074 17.5831 23.9244 19.0292 23.3079 20.3084C22.2015 22.2571 20.4343 23.5565 18.3268 23.9124C18.0929 23.9124 17.8379 23.9124 17.6029 23.9337C18.1993 23.8285 18.5829 23.4513 19.6682 23.0529C20.8379 22.6342 22.1583 20.6856 22.7979 19.553C24.6705 16.4717 22.4565 13.6221 20.349 11.8414ZM16.3478 23.9539C13.1128 23.6192 10.6217 20.9576 10.2813 17.8764C10.5785 19.5955 11.6006 20.9151 12.9842 22.0892C13.4742 22.4037 14.1971 22.8436 14.6871 23.1581C15.5175 23.4726 16.0064 23.8083 16.8157 23.9549H16.3478V23.9539ZM25.053 18.3587C24.9054 19.009 24.7558 19.6369 24.6062 20.2872C24.2869 21.0841 23.819 21.9011 23.1804 22.5503C22.5419 23.2006 21.7326 23.7031 20.9243 24.1855C20.2858 24.5202 19.4765 24.6881 18.8168 24.8549C18.4332 24.8974 17.9864 24.7295 17.6029 24.7093C22.329 24.5829 25.5641 20.1618 24.8622 15.7811C24.5208 14.5029 23.8401 13.3916 23.0097 12.2812C22.6694 11.7989 22.0087 11.5056 21.5197 11.0232C18.5607 9.15856 14.645 9.53575 12.4099 11.988C12.0965 12.3102 11.8047 12.6531 11.5364 13.0144C12.7292 11.2538 14.645 10.0181 16.9432 9.66112C17.7525 9.63987 18.5829 9.78756 19.3911 9.93419C22.9676 11.0232 25.6283 14.5029 25.053 18.3598V18.3587Z" fill="#D7DF23"/>
</g>
<defs>
<clipPath id="clip0_508_7554">
<rect width="98" height="34" fill="white"/>
</clipPath>
</defs>
</svg>
